{
  "accessors": [
    {
      "bufferView": 2,
      "componentType": 5126,
      "count": 302,
      "max": [
        9.631600379943848,
        4.175300121307373,
        22.11840057373047
      ],
      "min": [
        -9.631600379943848,
        -4.175300121307373,
        -12.159600257873535
      ],
      "type": "VEC3"
    },
    {
      "bufferView": 2,
      "byteOffset": 3624,
      "componentType": 5126,
      "count": 302,
      "max": [
        0.9999969005584717,
        1.0,
        0.9999898672103882
      ],
      "min": [
        -0.9999969005584717,
        -1.0,
        -0.9999898672103882
      ],
      "type": "VEC3"
    },
    {
      "bufferView": 1,
      "componentType": 5126,
      "count": 302,
      "max": [
        1.0672999620437622,
        1.055999994277954
      ],
      "min": [
        -0.06729999929666519,
        -0.0560000017285347
      ],
      "type": "VEC2"
    },
    {
      "bufferView": 0,
      "componentType": 5125,
      "count": 348,
      "type": "SCALAR"
    }
  ],
  "asset": {
    "extras": {
      "author": "Elhiot (https://sketchfab.com/elhiot)",
      "license": "CC-BY-4.0 (http://creativecommons.org/licenses/by/4.0/)",
      "source": "https://sketchfab.com/3d-models/rubis-zelda-0efd5cbc4c3d48c6b6ab8d0a19c061ee",
      "title": "Rubis_Zelda_Red"
    },
    "generator": "Sketchfab-12.68.0",
    "version": "2.0"
  },
  "bufferViews": [
    {
      "buffer": 0,
      "byteLength": 1392,
      "name": "floatBufferViews",
      "target": 34963
    },
    {
      "buffer": 0,
      "byteLength": 2416,
      "byteOffset": 1392,
      "byteStride": 8,
      "name": "floatBufferViews",
      "target": 34962
    },
    {
      "buffer": 0,
      "byteLength": 7248,
      "byteOffset": 3808,
      "byteStride": 12,
      "name": "floatBufferViews",
      "target": 34962
    }
  ],
  "buffers": [
    {
      "byteLength": 11056,
      "uri": "scene.bin"
    }
  ],
  "materials": [
    {
      "doubleSided": true,
      "name": "Material__2",
      "pbrMetallicRoughness": {
        "baseColorFactor": [
          0.8,
          0.1,
          0.1,
          1.0
        ],
        "roughnessFactor": 0.4
      }
    }
  ],
  "meshes": [
    {
      "name": "Object_0",
      "primitives": [
        {
          "attributes": {
            "NORMAL": 1,
            "POSITION": 0,
            "TEXCOORD_0": 2
          },
          "indices": 3,
          "material": 0,
          "mode": 4
        }
      ]
    }
  ],
  "nodes": [
    {
      "children": [
        1
      ],
      "matrix": [
        1.0,
        0.0,
        0.0,
        0.0,
        0.0,
        2.220446049250313e-16,
        -1.0,
        0.0,
        0.0,
        1.0,
        2.220446049250313e-16,
        0.0,
        0.0,
        0.0,
        0.0,
        1.0
      ],
      "name": "Sketchfab_model"
    },
    {
      "children": [
        2
      ],
      "name": "Rubis_Zelda.obj.cleaner"
    },
    {
      "mesh": 0,
      "name": "Object_2"
    }
  ],
  "scene": 0,
  "scenes": [
    {
      "name": "Sketchfab_Scene",
      "nodes": [
        0
      ]
    }
  ]
}