{
  "accessors": [
    {
      "bufferView": 2,
      "componentType": 5126,
      "count": 520,
      "max": [
        0.9601089954376221,
        0.6590350270271301,
        1.0
      ],
      "min": [
        -0.9601079821586609,
        -0.6590350270271301,
        -1.0
      ],
      "type": "VEC3"
    },
    {
      "bufferView": 2,
      "byteOffset": 6240,
      "componentType": 5126,
      "count": 520,
      "max": [
        0.9996487498283386,
        0.9992009997367859,
        1.0
      ],
      "min": [
        -0.9987513422966003,
        -0.9996647834777832,
        -0.9935584664344788
      ],
      "type": "VEC3"
    },
    {
      "bufferView": 3,
      "componentType": 5126,
      "count": 520,
      "max": [
        1.0,
        0.999984085559845,
        0.9573895335197449,
        1.0
      ],
      "min": [
        -0.9992005825042725,
        -0.9999985694885254,
        -0.9959646463394165,
        -1.0
      ],
      "type": "VEC4"
    },
    {
      "bufferView": 1,
      "componentType": 5126,
      "count": 520,
      "max": [
        0.9980469942092896,
        0.8180199861526489
      ],
      "min": [
        0.0019531298894435167,
        0.0019531199941411614
      ],
      "type": "VEC2"
    },
    {
      "bufferView": 0,
      "componentType": 5125,
      "count": 1638,
      "type": "SCALAR"
    }
  ],
  "asset": {
    "extras": {
      "author": "gamesastoater (https://sketchfab.com/gamesastoater)",
      "license": "CC-BY-4.0 (http://creativecommons.org/licenses/by/4.0/)",
      "source": "https://sketchfab.com/3d-models/stylized-sand-stone-rock-2-d93706647a3c472798b20d7c11292844",
      "title": "Stylized sand stone rock 2"
    },
    "generator": "Sketchfab-12.68.0",
    "version": "2.0"
  },
  "bufferViews": [
    {
      "buffer": 0,
      "byteLength": 6552,
      "name": "floatBufferViews",
      "target": 34963
    },
    {
      "buffer": 0,
      "byteLength": 4160,
      "byteOffset": 6552,
      "byteStride": 8,
      "name": "floatBufferViews",
      "target": 34962
    },
    {
      "buffer": 0,
      "byteLength": 12480,
      "byteOffset": 10712,
      "byteStride": 12,
      "name": "floatBufferViews",
      "target": 34962
    },
    {
      "buffer": 0,
      "byteLength": 8320,
      "byteOffset": 23192,
      "byteStride": 16,
      "name": "floatBufferViews",
      "target": 34962
    }
  ],
  "buffers": [
    {
      "byteLength": 31512,
      "uri": "scene.bin"
    }
  ],
  "images": [
    {
      "uri": "textures/Small_rock_1_low_baseColor.jpeg"
    },
    {
      "uri": "textures/Small_rock_1_low_metallicRoughness.png"
    },
    {
      "uri": "textures/Small_rock_1_low_normal.png"
    }
  ],
  "materials": [
    {
      "doubleSided": true,
      "name": "Small_rock_1_low",
      "normalTexture": {
        "index": 2
      },
      "occlusionTexture": {
        "index": 1
      },
      "pbrMetallicRoughness": {
        "baseColorTexture": {
          "index": 0
        },
        "metallicRoughnessTexture": {
          "index": 1
        }
      }
    }
  ],
  "meshes": [
    {
      "name": "defaultMaterial",
      "primitives": [
        {
          "attributes": {
            "NORMAL": 1,
            "POSITION": 0,
            "TANGENT": 2,
            "TEXCOORD_0": 3
          },
          "indices": 4,
          "material": 0,
          "mode": 4
        }
      ]
    }
  ],
  "nodes": [
    {
      "children": [
        1
      ],
      "matrix": [
        1.0,
        0.0,
        0.0,
        0.0,
        0.0,
        2.220446049250313e-16,
        -1.0,
        0.0,
        0.0,
        1.0,
        2.220446049250313e-16,
        0.0,
        0.0,
        0.0,
        0.0,
        1.0
      ],
      "name": "Sketchfab_model"
    },
    {
      "children": [
        2
      ],
      "matrix": [
        1.0,
        0.0,
        0.0,
        0.0,
        0.0,
        -4.371139006309477e-08,
        0.999999999999999,
        0.0,
        0.0,
        -0.999999999999999,
        -4.371139006309477e-08,
        0.0,
        0.0,
        0.0,
        0.0,
        1.0
      ],
      "name": "Collada visual scene group"
    },
    {
      "children": [
        3
      ],
      "name": "Small_rock_1_low"
    },
    {
      "mesh": 0,
      "name": "defaultMaterial"
    }
  ],
  "samplers": [
    {
      "magFilter": 9729,
      "minFilter": 9987,
      "wrapS": 10497,
      "wrapT": 10497
    }
  ],
  "scene": 0,
  "scenes": [
    {
      "name": "Sketchfab_Scene",
      "nodes": [
        0
      ]
    }
  ],
  "textures": [
    {
      "sampler": 0,
      "source": 0
    },
    {
      "sampler": 0,
      "source": 1
    },
    {
      "sampler": 0,
      "source": 2
    }
  ]
}
